<svg xmlns="http://www.w3.org/2000/svg" viewBox="0 0 1000 240" role="img" aria-label="Battleship game piece">
  <defs>
    <linearGradient id="bb_body" x1="0" y1="0" x2="0" y2="1">
      <stop offset="0" stop-color="#f0f2f6"/>
      <stop offset="0.48" stop-color="#c7ced8"/>
      <stop offset="1" stop-color="#98a2b0"/>
    </linearGradient>
    <linearGradient id="bb_deck" x1="0" y1="0" x2="1" y2="0">
      <stop offset="0" stop-color="#c1c9d4"/>
      <stop offset="1" stop-color="#aeb8c7"/>
    </linearGradient>
  </defs>
  <ellipse cx="500" cy="210" rx="390" ry="14" fill="#111725" fill-opacity="0.34"/>
  <path d="M90 156L176 78H792L910 118L792 162H176Z" fill="url(#bb_body)"/>
  <path d="M128 156L190 92H774L862 118L774 148H190Z" fill="url(#bb_deck)"/>
  <rect x="332" y="92" width="96" height="24" rx="6" fill="#b2bccb"/>
  <rect x="452" y="86" width="118" height="28" rx="7" fill="#aab5c5"/>
  <rect x="590" y="94" width="74" height="22" rx="6" fill="#b5bfce"/>
  <rect x="500" y="68" width="12" height="18" rx="3" fill="#9da8b8"/>
  <rect x="528" y="60" width="8" height="12" rx="2" fill="#9da8b8"/>
  <g fill="#131823">
    <circle cx="176" cy="120" r="13"/>
    <circle cx="372" cy="120" r="13"/>
    <circle cx="566" cy="120" r="13"/>
    <circle cx="760" cy="120" r="13"/>
  </g>
  <path d="M216 102H744" stroke="#99a3b2" stroke-width="2" stroke-dasharray="8 6" opacity="0.6"/>
  <g opacity="0.3" stroke="#7b8594" stroke-width="2">
    <path d="M236 156V172"/>
    <path d="M742 156V172"/>
  </g>
</svg>
