<svg xmlns="http://www.w3.org/2000/svg" viewBox="0 0 780 240" role="img" aria-label="Destroyer game piece">
  <defs>
    <linearGradient id="dd_body" x1="0" y1="0" x2="0" y2="1">
      <stop offset="0" stop-color="#eff2f7"/>
      <stop offset="0.5" stop-color="#c6ccd7"/>
      <stop offset="1" stop-color="#959fad"/>
    </linearGradient>
  </defs>
  <ellipse cx="390" cy="208" rx="290" ry="13" fill="#0f1522" fill-opacity="0.34"/>
  <path d="M86 158L146 84H568L694 118L568 152H146Z" fill="url(#dd_body)"/>
  <path d="M116 158L160 96H552L650 118L552 142H160Z" fill="#bcc4d1"/>
  <rect x="286" y="92" width="96" height="24" rx="6" fill="#aeb8c7"/>
  <rect x="400" y="86" width="72" height="24" rx="6" fill="#b8c1cf"/>
  <rect x="430" y="66" width="9" height="16" rx="2" fill="#9ea8b7"/>
  <g fill="#141a24">
    <circle cx="152" cy="120" r="12"/>
    <circle cx="390" cy="120" r="12"/>
    <circle cx="628" cy="120" r="12"/>
  </g>
  <path d="M184 104H588" stroke="#959faf" stroke-width="2" stroke-dasharray="8 6" opacity="0.56"/>
  <g opacity="0.28" stroke="#798291" stroke-width="2">
    <path d="M192 158V172"/>
    <path d="M586 158V172"/>
  </g>
</svg>
